<svg width="88" height="52" viewBox="0 0 88 52" fill="none" xmlns="http://www.w3.org/2000/svg">
<path d="M42.1417 40.6538C48.6738 47.5797 56.3665 50.9003 66.0074 49.5875C72.8365 48.6581 78.6047 46.172 82.4481 40.1271C85.1817 35.8868 86.6511 30.9688 86.6921 25.9365C86.9618 14.5069 78.9114 4.53537 67.5999 2.28741C62.4375 1.30381 57.9454 2.19641 52.7497 3.33879C44.2969 5.1995 36.2895 15.4867 36.3091 27.5145C36.5689 32.4538 38.644 37.126 42.1417 40.6538ZM64.9464 15.4286C65.6792 15.4131 66.2849 15.9882 66.3005 16.7143C66.3162 17.4403 65.7358 18.0406 65.0031 18.0561C64.9835 18.0561 64.964 18.0561 64.9445 18.0561C64.2117 18.0715 63.606 17.4965 63.5904 16.7704C63.5747 16.0443 64.1551 15.4441 64.8878 15.4286C64.9073 15.4286 64.9269 15.4286 64.9464 15.4286ZM54.8698 17.5313C55.6025 17.5158 56.2083 18.0909 56.2239 18.817C56.2395 19.5431 55.6592 20.1433 54.9265 20.1588C54.9069 20.1588 54.8874 20.1588 54.8678 20.1588C54.1351 20.1588 53.5392 19.5721 53.5392 18.8441C53.5392 18.1161 54.1332 17.5275 54.8678 17.5294L54.8698 17.5313Z" fill="#24B5BE"/>
<path d="M84.5701 14.9019C84.6502 15.4886 84.49 16.418 84.5701 17.0047C84.7186 20.8539 83.8022 24.6702 81.9186 28.0412C80.8478 31.6484 78.8352 34.9109 76.084 37.5016C73.3016 40.3962 69.8392 42.5629 66.0074 43.8079C62.6075 45.6744 58.7543 46.5844 54.8698 46.4353C52.185 46.4199 49.512 46.0675 46.9152 45.384C52.3492 49.2332 58.7406 50.5789 66.0074 49.5875C72.8365 48.6581 78.6066 46.172 82.4481 40.1271C85.1817 35.8868 86.6511 30.9688 86.6921 25.9384C86.7175 21.6652 86.1431 18.0464 84.5721 14.9019H84.5701Z" fill="#10939B"/>
<path d="M58.0528 3.33878C53.4708 2.83149 36.5924 9.73027 38.4311 30.142C38.478 30.657 40.1369 18.3387 46.9172 10.6984C51.7728 5.22079 60.3155 3.59049 58.0528 3.33878Z" fill="#5ADDE6"/>
<path d="M67.0684 51.1636C71.2831 50.544 75.9492 49.0725 79.7966 45.382C84.7987 40.5841 87.2256 34.9496 87.7531 28.0392C88.2201 20.3757 85.4904 -1.01386 59.1138 0.711323C50.5203 1.27283 43.9842 4.83549 39.4921 12.2745C36.0589 17.9573 34.2027 25.7932 35.7795 32.2467C38.5796 43.6956 49.6058 51.7329 63.3578 51.6903C64.1316 51.6574 65.1672 51.2546 66.0094 51.1656H67.0704L67.0684 51.1636ZM52.7497 3.33878C57.9434 2.19447 62.4375 1.30574 67.5999 2.28741C78.9114 4.53537 86.9618 14.5069 86.6921 25.9365C86.6531 30.9668 85.1817 35.8848 82.4481 40.1271C78.6047 46.172 72.8346 48.6562 66.0074 49.5875C56.3665 50.9003 48.6738 47.5797 42.1417 40.6538C38.6421 37.1279 36.567 32.4538 36.3071 27.5165C36.2895 15.4886 44.2969 5.20144 52.7517 3.34072L52.7497 3.33878Z" fill="black"/>
<path d="M54.8717 20.1569C55.6045 20.1724 56.2102 19.5973 56.2258 18.8712C56.2415 18.1451 55.6611 17.5449 54.9284 17.5294C54.9089 17.5294 54.8893 17.5294 54.8698 17.5294C54.1371 17.5139 53.5313 18.089 53.5157 18.8151C53.5001 19.5411 54.0804 20.1414 54.8131 20.1569C54.8327 20.1569 54.8522 20.1569 54.8717 20.1569Z" fill="black"/>
<path d="M64.9464 18.0541C65.6792 18.0696 66.2849 17.4945 66.3005 16.7685C66.3162 16.0424 65.7358 15.4421 65.0031 15.4267C64.9835 15.4267 64.964 15.4267 64.9445 15.4267C64.2117 15.4112 63.606 15.9862 63.5904 16.7123C63.5747 17.4384 64.1551 18.0386 64.8878 18.0541C64.9073 18.0541 64.9269 18.0541 64.9464 18.0541Z" fill="black"/>
<path d="M55.9328 33.2942C58.8891 34.3378 65.5385 36.6671 70.7829 30.6667C71.2245 30.1459 72.1292 28.6453 71.8439 28.0392C71.67 27.6288 71.2187 27.4061 70.7829 27.5145C70.1733 27.8185 69.7708 28.4168 69.7219 29.0906C69.6672 29.9251 68.9345 30.6377 68.1314 31.1934C64.669 33.5865 59.9677 33.087 56.4603 31.7181C55.796 31.4586 55.2157 31.1469 54.8698 32.2428C54.6686 32.8837 55.2899 33.3251 55.9328 33.2942Z" fill="black"/>
<path d="M16.1866 37.6028C16.1632 37.4692 16.3722 37.322 16.7181 37.0781C22.2322 33.558 32.2541 34.8979 34.7493 40.7569C37.7154 39.51 40.152 37.2814 41.6429 34.4506C43.3917 31.2733 43.6985 27.4589 44.2944 23.9408C42.1978 25.7879 39.8824 27.3756 37.4008 28.671C34.1084 30.2703 30.4545 30.9944 26.7947 30.7737C21.5463 30.5917 16.1221 29.9179 11.415 27.6196C12.2708 30.6188 13.3612 34.8398 16.1866 37.6047V37.6028Z" fill="#008FCF"/>
<path d="M22.0211 49.6907C27.9397 50.5523 35.0521 49.9153 40.0523 47.0632C47.9288 42.5711 50.5686 36.0867 51.19 26.5682C52.0614 13.1618 41.8187 3.57164 29.4443 2.39247C15.2682 1.04099 2.88005 11.2778 1.86789 21.8341C1.08044 30.0515 3.5483 38.0404 9.29297 43.9071C12.5795 47.2684 17.0131 48.9607 22.0211 49.6907ZM38.4618 15.0051C36.4395 15.1425 34.0634 15.3284 32.0977 16.5812C33.1568 13.7 35.3277 13.1172 38.4618 15.0051ZM25.7337 16.5812C22.9844 16.1997 20.7647 17.6558 18.3086 18.6839C19.7057 15.1193 22.8437 14.2538 25.7337 16.5812ZM8.76149 24.4635C9.56457 23.1469 10.1918 24.4422 10.8835 24.9883C14.8833 28.1559 18.2675 28.5064 23.0821 29.1918C30.1516 30.1986 37.819 27.8248 43.2354 23.4102C44.3374 22.5602 45.2421 21.4837 45.8869 20.2561C46.1741 19.6849 46.0159 18.7071 46.9479 19.2047C47.8799 19.7024 47.54 20.6492 46.9479 21.3075C46.4672 21.8419 45.8654 22.3879 45.3574 22.8836C43.7082 32.8513 44.4097 32.2549 42.1744 36.0228C37.0862 44.5945 25.4034 44.7281 18.3086 40.753C14.0528 38.3695 12.0481 35.4226 10.354 27.6157C10.2973 27.3621 9.85181 26.818 9.82445 26.5643C9.6525 26.4656 9.46492 26.1403 9.29297 26.0396C8.29254 25.4375 8.20656 25.3736 8.76344 24.4635H8.76149Z" fill="#008FCF"/>
<path d="M34.7473 34.9753C33.362 34.5223 31.9434 34.1699 30.5033 33.924C28.0902 33.7245 25.4894 33.9181 23.0782 33.924C20.5869 33.9298 18.166 33.7574 15.6532 33.924C15.1568 34.0421 14.5472 34.2976 14.0626 34.4487C14.6664 35.5833 15.788 37.7461 16.7142 38.6522C16.7024 38.5883 20.2547 41.5624 24.1392 42.3311C28.6529 43.2198 33.3932 42.2149 33.6863 41.8063C35.6383 40.8653 37.4282 39.6242 38.9894 38.1275C37.5181 37.1304 36.3535 35.744 34.7473 34.9734V34.9753Z" fill="#006FA1"/>
<path d="M44.824 9.75014C45.8068 11.4811 46.9167 13.0301 47.4755 15.0051C47.7725 17.2007 47.708 19.6443 48.005 21.8361C48.1672 25.1219 47.4345 28.3883 45.883 31.2965C44.8748 34.3693 43.548 36.9348 41.1114 39.1789C38.7647 41.5992 35.8494 43.4057 32.6253 44.4338C29.6924 45.9712 26.3941 46.6972 23.0802 46.5365C18.5665 46.523 14.7837 45.0999 10.8816 42.8577C9.35162 41.6882 7.63799 40.875 6.10803 39.7036C7.02054 41.208 8.0874 42.6176 9.28909 43.9071C12.5776 47.2665 17.0112 48.9588 22.0172 49.6887C27.9358 50.5503 35.0483 49.9133 40.0485 47.0612C47.9249 42.5692 50.5647 36.0848 51.1861 26.5663C51.6042 20.3142 49.2868 14.186 44.822 9.7482L44.824 9.75014Z" fill="#006FA1"/>
<path d="M22.5507 3.96857C18.0565 3.46902 1.12539 10.2323 2.9289 30.2451C2.97384 30.7505 4.76758 18.2947 11.415 10.8015C16.1768 5.43042 24.7684 4.21641 22.5507 3.96857Z" fill="#07B2FF"/>
<path d="M46.946 19.2086C46.012 18.711 46.1722 19.6888 45.885 20.26C45.2402 21.4876 44.3355 22.5641 43.2334 23.4141C37.817 27.8287 30.1497 30.2025 23.0802 29.1957C18.2656 28.5103 14.8814 28.1598 10.8835 24.9921C10.1918 24.4442 9.5646 23.1488 8.76152 24.4674C8.20659 25.3755 8.29257 25.4394 9.293 26.0435C9.463 26.1461 9.65253 26.4714 9.82253 26.5682C9.84988 26.8219 10.2973 27.3659 10.3521 27.6196C12.0481 35.4265 14.0509 38.3734 18.3067 40.7569C25.3996 44.73 37.0843 44.5984 42.1724 36.0267C44.4078 32.2607 43.7063 32.8552 45.3554 22.8894C45.8635 22.3898 46.4653 21.8458 46.946 21.3133C47.538 20.653 47.8741 19.7062 46.946 19.2106V19.2086ZM41.6429 34.4487C40.152 37.2794 37.7154 39.508 34.7493 40.755C34.4249 40.906 34.0166 41.1635 33.6883 41.2797C28.311 43.1501 22.3787 41.907 17.7791 38.6522C17.699 38.5961 16.1807 37.5563 16.1886 37.6008C13.3631 34.834 12.2708 30.6149 11.415 27.6157C16.1221 29.9121 21.5463 30.5859 26.7947 30.7698C30.4545 30.9925 34.1104 30.2684 37.4008 28.6671C39.8843 27.3718 42.1978 25.784 44.2944 23.9369C43.6965 27.4531 43.3917 31.2713 41.6429 34.4467V34.4487Z" fill="black"/>
<path d="M25.7317 16.5812C22.8418 14.2519 19.7037 15.1193 18.3066 18.6839C20.7628 17.6558 22.9825 16.2017 25.7317 16.5812Z" fill="black"/>
<path d="M32.0958 16.5773C34.0595 15.3245 36.4375 15.1367 38.4599 15.0012C35.3238 13.1172 33.1548 13.7 32.0958 16.5773Z" fill="black"/>
<path d="M24.6727 51.2667C39.4779 51.9754 46.2875 47.1639 50.6585 37.0761C57.3118 21.7277 49.3591 3.73815 31.0387 1.33917C18.7326 -0.269838 9.60953 3.86014 2.92891 13.427C-0.750413 18.7013 -0.580417 26.5547 1.33838 32.8706C3.1712 38.9117 9.51378 50.5407 24.6727 51.2667ZM1.86791 21.8361C2.88006 11.2759 15.2682 1.04099 29.4462 2.39248C41.8207 3.57164 52.0615 13.1618 51.19 26.5682C50.5706 36.0887 47.9268 42.5711 40.0524 47.0632C35.0502 49.9153 27.9378 50.5542 22.0211 49.6907C17.0131 48.9607 12.5815 47.2684 9.29299 43.9091C3.54832 38.0442 1.0785 30.0534 1.86791 21.8361Z" fill="black"/>
</svg>
