<svg width="80" height="78" viewBox="0 0 80 78" fill="none" xmlns="http://www.w3.org/2000/svg">
<path d="M10.6855 60.8725C20.4809 71.3298 32.0169 76.3436 46.4743 74.3615C56.7152 72.9582 65.365 69.2045 71.1286 60.0774C75.2278 53.6749 77.4313 46.2493 77.4928 38.6512C77.8972 21.3939 65.825 6.33801 48.8624 2.94385C41.1209 1.45872 34.3845 2.80645 26.5932 4.5313C13.9174 7.34076 1.90966 22.8732 1.93896 41.0338C2.32867 48.4916 5.44049 55.546 10.6855 60.8725ZM44.8832 22.7855C45.982 22.7621 46.8904 23.6304 46.9138 24.7267C46.9373 25.823 46.067 26.7293 44.9682 26.7526C44.9389 26.7526 44.9096 26.7526 44.8803 26.7526C43.7815 26.776 42.8731 25.9078 42.8497 24.8115C42.8263 23.7152 43.6965 22.8089 44.7953 22.7855C44.8246 22.7855 44.8539 22.7855 44.8832 22.7855ZM29.7724 25.9604C30.8712 25.937 31.7796 26.8053 31.803 27.9016C31.8265 28.9979 30.9562 29.9042 29.8574 29.9275C29.8281 29.9275 29.7988 29.9275 29.7695 29.9275C28.6707 29.9275 27.777 29.0417 27.777 27.9425C27.777 26.8433 28.6678 25.9545 29.7695 25.9575L29.7724 25.9604Z" fill="#24B5BE"/>
<path d="M74.3107 21.9903C74.4308 22.8761 74.1906 24.2794 74.3107 25.1652C74.5334 30.9771 73.1591 36.7392 70.3345 41.829C68.7288 47.2754 65.7107 52.2015 61.5851 56.1131C57.4125 60.4837 52.2203 63.7551 46.4743 65.6349C41.3758 68.4531 35.5976 69.8271 29.7724 69.602C25.7464 69.5787 21.738 69.0466 17.8438 68.0146C25.9926 73.8265 35.5771 75.8583 46.4743 74.3615C56.7152 72.9582 65.3679 69.2044 71.1286 60.0774C75.2278 53.6749 77.4313 46.2493 77.4928 38.6541C77.5309 32.202 76.6695 26.738 74.3136 21.9903H74.3107Z" fill="#10939B"/>
<path d="M34.5457 4.5313C27.6745 3.76534 2.36386 14.1817 5.12113 45.001C5.19146 45.7786 7.67915 27.1795 17.8468 15.6434C25.1282 7.37292 37.9388 4.91135 34.5457 4.5313Z" fill="#5ADDE6"/>
<path d="M48.0654 76.7412C54.3857 75.8057 61.3829 73.5838 67.1524 68.0117C74.6535 60.7673 78.2928 52.26 79.0839 41.8261C79.7842 30.255 75.6908 -2.04068 36.1367 0.564136C23.2499 1.41194 13.4486 6.79114 6.71219 18.0231C1.56392 26.6035 -1.21972 38.4349 1.14491 48.1788C5.34381 65.4653 21.8786 77.6007 42.501 77.5364C43.6614 77.4867 45.2143 76.8786 46.4772 76.7441H48.0683L48.0654 76.7412ZM26.5932 4.53129C34.3816 2.80352 41.1209 1.46164 48.8624 2.94385C65.825 6.338 77.8972 21.3939 77.4929 38.6512C77.4342 46.2464 75.2278 53.672 71.1286 60.0774C65.365 69.2045 56.7122 72.9553 46.4743 74.3615C32.0169 76.3436 20.481 71.3298 10.6855 60.8725C5.43758 55.5489 2.32576 48.4916 1.93605 41.0368C1.90968 22.8761 13.9174 7.34368 26.5962 4.53422L26.5932 4.53129Z" fill="black"/>
<path d="M29.7754 29.9246C30.8742 29.948 31.7825 29.0797 31.806 27.9834C31.8294 26.8871 30.9592 25.9809 29.8604 25.9575C29.8311 25.9575 29.8018 25.9575 29.7724 25.9575C28.6736 25.9341 27.7653 26.8023 27.7419 27.8987C27.7184 28.995 28.5887 29.9012 29.6875 29.9246C29.7168 29.9246 29.7461 29.9246 29.7754 29.9246Z" fill="black"/>
<path d="M44.8832 26.7497C45.982 26.7731 46.8904 25.9048 46.9138 24.8085C46.9373 23.7122 46.067 22.806 44.9682 22.7826C44.9389 22.7826 44.9096 22.7826 44.8803 22.7826C43.7815 22.7592 42.8731 23.6275 42.8497 24.7238C42.8263 25.8201 43.6965 26.7263 44.7953 26.7497C44.8246 26.7497 44.8539 26.7497 44.8832 26.7497Z" fill="black"/>
<path d="M31.3665 49.7604C35.7998 51.3362 45.7711 54.8531 53.6356 45.7933C54.2978 45.0068 55.6545 42.7411 55.2267 41.8261C54.9659 41.2063 54.289 40.8701 53.6356 41.0338C52.7214 41.4928 52.1178 42.3962 52.0445 43.4135C51.9625 44.6736 50.8637 45.7494 49.6594 46.5884C44.4672 50.2019 37.4172 49.4476 32.1576 47.3807C31.1614 46.989 30.2911 46.5183 29.7725 48.173C29.4707 49.1406 30.4024 49.8072 31.3665 49.7604Z" fill="black"/>
</svg>
