<svg width="79" height="78" viewBox="0 0 79 78" fill="none" xmlns="http://www.w3.org/2000/svg">
<path d="M41.657 2.82547C15.3243 3.11489 3.56273 13.9142 1.68574 38.5328C0.0195472 60.4297 20.4557 74.9623 40.089 75.8276C58.8965 76.6579 76.6557 58.3774 76.9272 38.5328C77.4412 17.0248 59.0842 2.63544 41.657 2.82547ZM15.0095 39.328C12.5117 38.7579 10.421 40.0969 7.16945 40.9154C10.2275 36.1239 13.0603 36.2145 16.5746 37.7406C16.0548 37.8692 16.9933 39.7782 15.0066 39.3251L15.0095 39.328ZM38.5239 59.1667C38.1167 59.8742 36.8722 60.5086 36.1733 59.959C29.3728 54.6587 22.2836 55.6527 17.363 61.5464C16.5631 59.5146 17.9116 59.1492 18.931 58.3715C24.1837 54.3167 31.3769 54.0009 36.9588 57.5793C37.7067 58.0412 39.2054 57.9915 38.5268 59.1638L38.5239 59.1667ZM34.6053 40.1261C33.5513 40.1086 31.4231 40.474 31.4693 38.5387C31.5011 37.2728 32.7947 37.8253 33.8199 37.7464C36.1502 37.5622 38.085 38.4422 40.0919 40.1261C37.8106 40.1261 36.4852 40.1524 34.6053 40.1261Z" fill="#FF5C00"/>
<path d="M55.7662 5.99745C56.4102 6.50029 57.4729 6.28395 58.1168 6.78971C62.7689 11.5287 65.7403 17.8112 67.522 24.2516C67.9696 27.6195 68.6424 30.4085 69.09 33.7734C69.2864 39.0035 67.522 44.3272 65.1714 48.8498C63.6554 53.5595 61.7784 57.3103 58.1168 60.7513C54.6603 64.4202 50.349 67.1478 45.5756 68.6856C41.247 71.0244 36.3668 72.1236 31.4664 71.8605C28.3102 71.9803 25.1539 71.7143 22.0612 71.0682C27.672 73.9186 33.8141 75.5411 40.089 75.8306C58.8965 76.6608 76.6557 58.3803 76.9272 38.5358C77.3026 22.9156 67.626 11.2392 55.7662 5.99745Z" fill="#BD4400"/>
<path d="M31.4693 4.41C29.4566 4.41 -0.0497508 11.3328 4.82177 47.2594C4.96615 48.3352 3.99878 28.6661 11.8764 18.6941C18.7635 9.97046 32.4107 4.41 31.4693 4.41Z" fill="#FF9458"/>
<path d="M78.4952 38.5299C79.3095 16.1098 61.4059 1.00415 41.657 0.442841C15.0037 -0.311416 1.82144 14.4901 0.117707 36.9454C-1.7564 62.0054 19.0522 77.5525 40.8745 77.4151C61.325 79.2364 77.7328 59.5614 78.4952 38.5328V38.5299ZM40.0919 75.8247C20.4528 74.9623 0.0166384 60.4267 1.68572 38.5299C3.55694 13.9113 15.3271 3.1149 41.657 2.82547C59.0842 2.63253 77.4441 17.0248 76.9272 38.5328C76.6557 58.3774 58.8936 76.6579 40.089 75.8276L40.0919 75.8247Z" fill="black"/>
<path d="M36.9559 57.5734C31.374 53.9951 24.1837 54.3137 18.9281 58.3657C17.9087 59.1404 16.5602 59.5058 17.363 61.5406C22.2836 55.6469 29.3728 54.6529 36.1733 59.9531C36.875 60.4998 38.1167 59.8654 38.5239 59.1609C39.1996 57.9856 37.7009 58.0412 36.953 57.5734H36.9559Z" fill="black"/>
<path d="M16.5775 37.7376C13.0661 36.2028 10.2275 36.121 7.1723 40.9125C10.4238 40.094 13.2971 38.755 15.7949 39.3251C17.7788 39.7782 16.0577 37.8692 16.5775 37.7376Z" fill="black"/>
<path d="M34.6053 37.7376C33.5773 37.8195 31.501 37.267 31.4692 38.5299C31.423 40.4652 33.5541 40.0998 34.6053 40.1173C36.4851 40.1495 37.8106 40.1173 40.0919 40.1173C38.0878 38.4363 36.9356 37.5535 34.6053 37.7376Z" fill="black"/>
</svg>
