<svg width="80" height="78" viewBox="0 0 80 78" fill="none" xmlns="http://www.w3.org/2000/svg">
<path d="M31.0541 74.327C52.7284 78.5397 71.5136 66.3108 74.7953 46.5539C79.4718 17.3893 62.9312 7.49922 43.7797 3.70747C27.3357 0.450713 9.50575 9.8263 5.60572 28.3056C-0.342479 56.4353 12.7348 70.7662 31.0541 74.327Z" fill="#B9B9B9"/>
<path d="M70.025 17.9886C70.8308 20.5701 71.3641 23.2304 71.6132 25.923V35.4447C70.9715 40.3503 69.0522 45.0016 66.0459 48.9337C64.1003 53.0879 61.0793 56.6487 57.2965 59.2477C49.3411 64.5392 39.7419 66.7932 30.2541 65.5945C23.8225 64.5362 17.7834 61.7969 12.7523 57.6602C10.6309 55.4062 8.51242 53.5674 6.391 51.3134C5.74343 50.4159 5.35665 49.0711 4.79993 48.1385C7.44292 63.2411 17.7395 71.7397 31.0453 74.324C52.7196 78.5368 71.5047 66.3079 74.7865 46.551C76.8786 33.562 74.6869 24.6337 70.0221 17.9857L70.025 17.9886Z" fill="#9E9E9E"/>
<path d="M39.0094 3.70454C32.6744 1.95045 6.87448 7.69216 4.81166 37.0322C4.75891 37.7718 10.2295 20.1462 21.5135 10.8466C29.5978 4.18106 42.1359 4.57281 39.0094 3.70454Z" fill="#E6E6E6"/>
<path d="M32.6452 76.7096C53.9063 80.0979 72.5245 69.626 77.1805 47.3521C81.397 19.6024 68.516 5.90592 44.5738 1.32775C25.0912 -2.31783 6.33535 10.4841 2.68146 29.9223C2.58476 30.4397 2.49686 30.9601 2.42361 31.4834C-0.694073 53.7574 6.77488 72.5875 32.6452 76.7096ZM5.60575 28.3056C9.5087 9.8263 27.3416 0.450708 43.7797 3.70746C62.9312 7.50214 79.4748 17.3952 74.7953 46.5569C71.5136 66.3137 52.7284 78.5426 31.0541 74.3299C12.7319 70.7691 -0.339525 56.4382 5.60575 28.3056Z" fill="black"/>
<path d="M23.1017 51.3163C26.2662 50.679 29.4865 50.1878 32.6452 49.7288C41.2481 48.4805 49.4935 47.7204 58.0935 46.5539C58.7674 46.4633 59.7754 46.1037 59.6846 44.9665C59.5996 43.8936 59.2333 42.8207 58.0935 43.379C57.5983 43.7094 57.065 43.9754 56.5024 44.1713C46.0623 46.1183 35.1065 47.7672 24.6898 48.9336C23.9338 49.0184 23.2628 48.9249 23.0988 47.3462C23.0108 46.5101 23.0753 46.1505 22.3047 46.5539C21.4842 46.9837 21.1795 47.7321 20.7136 49.7288C20.277 51.2841 21.6893 51.5969 23.0988 51.3163H23.1017Z" fill="black"/>
<path d="M45.3708 28.3056C48.1339 28.0074 51.3454 29.2645 54.9143 28.3056C52.0222 25.5926 48.2247 26.3936 45.3708 25.9259C44.9987 25.8645 44.6968 26.2942 44.5767 26.7181C44.2983 27.6449 44.6851 28.3758 45.3708 28.3056Z" fill="black"/>
<path d="M31.8511 28.3056C32.6364 27.9519 34.1835 29.2265 34.2362 27.5133C34.289 25.8265 33.7117 25.9347 32.6451 25.9259C31.0951 25.9142 25.1117 26.8643 25.4868 29.1008C26.8112 28.9663 31.7251 28.3611 31.8481 28.3085L31.8511 28.3056Z" fill="black"/>
</svg>
