<svg width="80" height="78" viewBox="0 0 80 78" fill="none" xmlns="http://www.w3.org/2000/svg">
<path d="M39.5103 75.0497C57.141 75.7367 76.3804 60.6136 76.8902 39.3424C77.4147 17.4104 59.8075 1.94232 40.3044 2.83983C17.1504 3.91274 3.00653 13.0369 2.13041 39.3424C1.45648 59.5202 22.8348 76.5904 39.5103 75.0497Z" fill="#FFA800"/>
<path d="M68.1378 13.952C69.1546 16.2527 69.9516 18.6441 70.5229 21.094C70.9683 24.4063 71.6657 27.3035 72.114 30.6158C72.3074 35.764 70.479 40.4445 68.1378 44.8999C66.6288 49.5336 64.6334 54.2053 60.9795 57.5965C57.5863 61.2421 53.6951 63.2301 49.0508 64.7386C44.3655 67.0628 39.1645 68.1562 33.94 67.9135C27.5201 68.0421 21.188 66.3933 15.6471 63.1512L7.69471 57.5965C7.11747 57.0206 6.63692 55.822 6.10364 55.2168C12.8664 67.5013 27.4791 76.1665 39.5073 75.0526C57.138 75.7396 76.3774 60.6165 76.8872 39.3453C77.1304 29.2651 73.8868 20.2784 68.1378 13.9549V13.952Z" fill="#BD7D00"/>
<path d="M28.3757 6.01765C5.24516 9.44981 3.66874 37.3369 3.71855 39.3424C3.85041 44.4409 5.71105 29.6656 12.468 19.5036C18.6389 10.2158 29.3222 5.8744 28.3728 6.01472L28.3757 6.01765Z" fill="#FFD37D"/>
<path d="M41.0984 77.4294C48.5381 77.0991 55.7199 74.617 61.7706 70.2874C77.6667 58.6607 83.1168 40.4825 76.8814 25.0583C69.685 7.26597 56.3616 -0.24152 38.7074 0.460114C22.7704 1.09451 10.6161 5.93286 3.71267 21.8863C-8.78148 50.7644 12.1163 77.1868 38.7074 77.4353H41.0984V77.4294ZM2.12746 39.3424C3.0065 13.0369 17.1503 3.91274 40.3014 2.84275C59.8016 1.94232 77.4118 17.4104 76.8843 39.3453C76.3745 60.6165 57.1381 75.7367 39.5044 75.0526C22.8319 76.5933 1.45352 59.5231 2.12746 39.3453V39.3424Z" fill="black"/>
<path d="M45.8746 50.4516C46.3639 50.7001 47.0906 51.124 47.4656 50.4516C47.911 49.6505 47.2342 49.405 46.6716 48.8641C43.5041 45.8208 35.2704 46.9229 31.5608 52.039C37.0167 49.6038 41.5497 48.2619 45.8746 50.4516Z" fill="black"/>
<path d="M31.555 31.408C34.1511 31.8027 34.951 27.8355 32.349 27.4409C29.747 27.0433 28.953 31.0134 31.555 31.408Z" fill="black"/>
<path d="M46.6657 31.408C49.2619 31.8027 50.0618 27.8355 47.4598 27.4409C44.8578 27.0462 44.0608 31.0163 46.6657 31.408Z" fill="black"/>
</svg>
