<svg width="104" height="48" viewBox="0 0 104 48" fill="none" xmlns="http://www.w3.org/2000/svg">
<path d="M19.1474 45.5099C32.3941 48.0671 43.8751 40.6441 45.8808 28.6515C48.739 10.9484 38.6298 4.94506 26.9249 2.64345C16.8748 0.666575 5.9776 6.35762 3.59401 17.5747C-0.0413756 34.6496 7.95109 43.3485 19.1474 45.5099Z" fill="#B9B9B9"/>
<path d="M42.9654 11.3122C43.4579 12.8792 43.7838 14.494 43.936 16.1284V21.9082C43.5438 24.8859 42.3708 27.7092 40.5334 30.096C39.3443 32.6177 37.498 34.7791 35.186 36.3567C30.3239 39.5687 24.4572 40.9369 18.6585 40.2093C14.7276 39.5669 11.0367 37.9041 7.96187 35.3931C6.66531 34.0249 5.37054 32.9087 4.07398 31.5405C3.67821 30.9957 3.44182 30.1794 3.10156 29.6133C4.71689 38.7808 11.0099 43.9394 19.142 45.5082C32.3888 48.0653 43.8698 40.6423 45.8755 28.6498C47.1541 20.7653 45.8146 15.3458 42.9636 11.3104L42.9654 11.3122Z" fill="#9E9E9E"/>
<path d="M24.0094 2.64167C20.1376 1.57693 4.36937 5.06218 3.10863 22.8718C3.07639 23.3207 6.41987 12.6218 13.3163 6.97694C18.2572 2.93092 25.9202 3.16871 24.0094 2.64167Z" fill="#E6E6E6"/>
<path d="M20.1198 46.9562C33.114 49.0129 44.4929 42.6564 47.3386 29.136C49.9156 12.2918 42.0431 3.97792 27.4102 1.19894C15.503 -1.01395 4.03992 6.75689 1.80675 18.556C1.74766 18.8701 1.69393 19.186 1.64916 19.5036C-0.256281 33.0241 4.30854 44.4541 20.1198 46.9562ZM3.594 17.5747C5.97938 6.35761 16.8784 0.666571 26.9249 2.64344C38.6298 4.94683 48.7408 10.952 45.8808 28.6533C43.8751 40.6458 32.3941 48.0689 19.1473 45.5117C7.94929 43.3503 -0.0395911 34.6513 3.594 17.5747Z" fill="black"/>
<path d="M14.287 31.5423C16.2211 31.1554 18.1892 30.8573 20.1198 30.5787C25.3776 29.821 30.417 29.3596 35.6731 28.6515C36.085 28.5965 36.701 28.3782 36.6455 27.6879C36.5936 27.0367 36.3697 26.3854 35.6731 26.7243C35.3704 26.9249 35.0445 27.0864 34.7007 27.2053C28.32 28.3871 21.6241 29.388 15.2577 30.096C14.7956 30.1475 14.3855 30.0907 14.2852 29.1324C14.2315 28.6249 14.2709 28.4066 13.7999 28.6515C13.2985 28.9124 13.1122 29.3667 12.8275 30.5787C12.5607 31.5228 13.4239 31.7127 14.2852 31.5423H14.287Z" fill="black"/>
<path d="M27.8973 17.5747C29.586 17.3937 31.5488 18.1567 33.73 17.5747C31.9625 15.9279 29.6416 16.4141 27.8973 16.1302C27.6699 16.0929 27.4854 16.3538 27.412 16.6111C27.2418 17.1736 27.4782 17.6172 27.8973 17.5747Z" fill="black"/>
<path d="M19.6345 17.5747C20.1144 17.3599 21.06 18.1336 21.0922 17.0938C21.1245 16.0698 20.7717 16.1355 20.1198 16.1302C19.1725 16.1231 15.5156 16.6998 15.7448 18.0573C16.5543 17.9757 19.5575 17.6084 19.6327 17.5764L19.6345 17.5747Z" fill="black"/>
<path d="M51.6554 45.9486C62.4308 46.3656 74.1894 37.1858 74.501 24.274C74.8215 10.9612 64.0605 1.57199 52.1407 2.11679C37.9896 2.76805 29.3453 8.30648 28.8098 24.274C28.3979 36.5221 41.4638 46.8838 51.6554 45.9486Z" fill="#FFA800"/>
<path d="M69.1518 8.86192C69.7732 10.2585 70.2603 11.7101 70.6095 13.1972C70.8817 15.2078 71.3079 16.9664 71.5819 18.977C71.7001 22.102 70.5827 24.9431 69.1518 27.6475C68.2295 30.4602 67.0099 33.296 64.7768 35.3545C62.703 37.5673 60.3248 38.7741 57.4863 39.6897C54.6228 41.1005 51.4441 41.7642 48.251 41.6169C44.3273 41.695 40.4573 40.6941 37.0709 38.7261L32.2106 35.3545C31.8578 35.0049 31.5641 34.2773 31.2382 33.91C35.3714 41.3667 44.3022 46.6265 51.6536 45.9504C62.429 46.3674 74.1876 37.1876 74.4992 24.2758C74.6478 18.1571 72.6654 12.7021 69.1518 8.8637V8.86192Z" fill="#BD7D00"/>
<path d="M44.8503 4.04574C30.7135 6.12908 29.75 23.0567 29.7804 24.274C29.861 27.3689 30.9982 18.4002 35.1279 12.2318C38.8993 6.59402 45.4287 3.95878 44.8485 4.04396L44.8503 4.04574Z" fill="#FFD37D"/>
<path d="M52.6261 47.3931C57.173 47.1926 61.5623 45.686 65.2604 43.0579C74.9756 36.0004 78.3065 24.9661 74.4957 15.6035C70.0974 4.80348 61.9545 0.246388 51.1648 0.672284C41.4244 1.05737 33.9961 3.99428 29.7769 13.6781C22.1408 31.2073 34.913 47.2458 51.1648 47.3967H52.6261V47.3931ZM28.8081 24.274C29.3453 8.30648 37.9896 2.76805 52.139 2.11856C64.0569 1.57199 74.8198 10.9612 74.4975 24.2758C74.1858 37.1876 62.4291 46.3657 51.6519 45.9504C41.462 46.8856 28.3962 36.5239 28.8081 24.2758V24.274Z" fill="black"/>
<path d="M55.5451 31.0174C55.8441 31.1682 56.2883 31.4256 56.5175 31.0174C56.7897 30.5312 56.376 30.3821 56.0322 30.0538C54.0963 28.2065 49.0641 28.8755 46.7969 31.981C50.1314 30.5028 52.9018 29.6883 55.5451 31.0174Z" fill="black"/>
<path d="M46.7933 19.4579C48.38 19.6974 48.8689 17.2894 47.2786 17.0498C45.6884 16.8084 45.2031 19.2183 46.7933 19.4579Z" fill="black"/>
<path d="M56.0287 19.4579C57.6154 19.6974 58.1042 17.2893 56.514 17.0498C54.9237 16.8102 54.4366 19.2201 56.0287 19.4579Z" fill="black"/>
<path d="M80.6817 2.10808C64.3511 2.28376 57.0571 8.83902 55.8931 23.7827C54.8598 37.0742 67.5335 45.8956 79.7093 46.4208C91.373 46.9248 102.387 35.8284 102.555 23.7827C102.874 10.7272 91.4894 1.99273 80.6817 2.10808ZM64.1559 24.2653C62.6069 23.9193 61.3103 24.7321 59.2939 25.2289C61.1903 22.3204 62.9471 22.3754 65.1266 23.3018C64.8042 23.3798 65.3862 24.5386 64.1542 24.2636L64.1559 24.2653ZM78.7387 36.3076C78.4862 36.737 77.7143 37.1221 77.2809 36.7885C73.0635 33.5712 68.667 34.1745 65.6155 37.7521C65.1194 36.5187 65.9557 36.2969 66.5879 35.8249C69.8454 33.3636 74.3064 33.1719 77.768 35.344C78.2319 35.6244 79.1613 35.5942 78.7405 36.3058L78.7387 36.3076ZM76.3085 24.7498C75.6549 24.7392 74.335 24.961 74.3637 23.7862C74.3834 23.0178 75.1857 23.3532 75.8214 23.3053C77.2666 23.1935 78.4665 23.7277 79.7111 24.7498C78.2963 24.7498 77.4743 24.7658 76.3085 24.7498Z" fill="#FF5C00"/>
<path d="M89.4317 4.03348C89.8311 4.3387 90.4901 4.20739 90.8895 4.51439C93.7745 7.39096 95.6172 11.2045 96.7222 15.1139C96.9998 17.1582 97.417 18.8511 97.6946 20.8937C97.8164 24.0684 96.7222 27.2999 95.2645 30.0451C94.3243 32.9039 93.1602 35.1807 90.8895 37.2694C88.7458 39.4965 86.0721 41.1521 83.1119 42.0856C80.4274 43.5052 77.4009 44.1725 74.3619 44.0127C72.4045 44.0855 70.4472 43.924 68.5292 43.5318C72.0088 45.262 75.8178 46.2469 79.7093 46.4226C91.373 46.9266 102.387 35.8302 102.555 23.7844C102.788 14.3029 96.7866 7.21528 89.4317 4.03348Z" fill="#BD4400"/>
<path d="M74.3637 3.06989C73.1155 3.06989 54.8168 7.27206 57.8379 29.0797C57.9275 29.7328 57.3276 17.7935 62.2129 11.7404C66.4841 6.44512 74.9475 3.06989 74.3637 3.06989Z" fill="#FF9458"/>
<path d="M103.527 23.7809C104.032 10.1717 92.9292 1.00252 80.6817 0.661799C64.1524 0.20396 55.9772 9.1886 54.9207 22.8191C53.7584 38.0307 66.6631 47.4678 80.1964 47.3844C92.879 48.49 103.055 36.5471 103.527 23.7827V23.7809ZM79.7111 46.4191C67.5317 45.8956 54.858 37.0724 55.8931 23.7809C57.0535 8.83724 64.3529 2.28375 80.6817 2.10807C91.4894 1.99095 102.875 10.7272 102.555 23.7827C102.387 35.8284 91.3712 46.9248 79.7093 46.4208L79.7111 46.4191Z" fill="black"/>
<path d="M77.7663 35.3404C74.3046 33.1683 69.8455 33.3618 66.5861 35.8213C65.954 36.2916 65.1177 36.5134 65.6155 37.7485C68.6671 34.171 73.0636 33.5676 77.281 36.7849C77.7161 37.1168 78.4862 36.7317 78.7387 36.304C79.1578 35.5906 78.2283 35.6243 77.7645 35.3404H77.7663Z" fill="black"/>
<path d="M65.1284 23.3C62.9507 22.3683 61.1904 22.3186 59.2957 25.2271C61.3121 24.7303 63.094 23.9175 64.6431 24.2636C65.8734 24.5386 64.806 23.3798 65.1284 23.3Z" fill="black"/>
<path d="M76.3085 23.3C75.6709 23.3497 74.3833 23.0143 74.3636 23.7809C74.335 24.9556 75.6566 24.7338 76.3085 24.7445C77.4743 24.764 78.2963 24.7445 79.711 24.7445C78.4682 23.7241 77.7537 23.1882 76.3085 23.3Z" fill="black"/>
</svg>
